<?xml version="1.0" standalone="no"?>
<!DOCTYPE svg PUBLIC "-//W3C//DTD SVG 20010904//EN"
 "http://www.w3.org/TR/2001/REC-SVG-20010904/DTD/svg10.dtd">
<svg version="1.0" xmlns="http://www.w3.org/2000/svg"
 width="96.000000pt" height="96.000000pt" viewBox="0 0 96.000000 96.000000"
 preserveAspectRatio="xMidYMid meet">

<g transform="translate(0.000000,96.000000) scale(0.100000,-0.100000)"
fill="#000000" stroke="none">
<path d="M373 836 c-104 -34 -185 -106 -232 -205 -22 -48 -26 -69 -26 -151 0
-87 3 -101 32 -161 61 -123 173 -198 310 -207 50 -3 73 -1 73 7 0 6 -16 11
-38 11 -55 0 -151 27 -192 54 -52 34 -108 95 -131 143 -96 199 12 430 229 489
112 31 239 -5 326 -92 44 -43 79 -103 91 -156 7 -27 5 -28 -29 -28 -53 0 -56
-21 -15 -97 55 -104 79 -105 134 -7 46 81 43 97 -14 104 -42 5 -45 7 -56 47
-30 101 -105 186 -204 231 -68 31 -191 40 -258 18z m513 -383 c-19 -32 -40
-58 -46 -58 -6 0 -27 26 -46 58 l-33 57 79 0 79 0 -33 -57z"/>
<path d="M439 555 c-14 -8 -32 -28 -39 -45 -17 -42 5 -91 49 -110 67 -28 139
43 111 110 -12 30 -55 60 -82 60 -7 -1 -25 -7 -39 -15z m83 -32 c22 -20 23
-61 1 -85 -34 -38 -103 -11 -103 40 0 54 62 81 102 45z"/>
<path d="M774 299 c-3 -6 -2 -15 4 -21 7 -7 14 -3 21 11 10 17 9 21 -3 21 -8
0 -18 -5 -22 -11z"/>
<path d="M705 217 c-10 -8 -15 -19 -11 -26 6 -9 13 -8 27 5 33 30 20 47 -16
21z"/>
<path d="M613 159 c-24 -9 -31 -29 -10 -29 19 0 40 16 36 28 -3 6 -13 6 -26 1z"/>
</g>
</svg>
