<?xml version="1.0" encoding="utf-8"?>
<!-- Generator: Adobe Illustrator 16.0.3, SVG Export Plug-In . SVG Version: 6.00 Build 0)  -->
<!DOCTYPE svg PUBLIC "-//W3C//DTD SVG 1.1//EN" "http://www.w3.org/Graphics/SVG/1.1/DTD/svg11.dtd">
<svg version="1.1" id="Capa_1" xmlns="http://www.w3.org/2000/svg" xmlns:xlink="http://www.w3.org/1999/xlink" x="0px" y="0px"
	 width="1920px" height="1080px" viewBox="0 0 1920 1080" enable-background="new 0 0 1920 1080" xml:space="preserve">
<g>
	<g>
		<path fill="#F19715" d="M826.845,656.592c-4.41-4.134-6.614-9.893-6.614-17.278c0-3.307,0.496-6.668,1.488-10.086l43.815-148.145
			c2.534-8.929,6.448-15.568,11.739-19.924c5.291-4.353,12.124-6.531,20.502-6.531h27.116c8.375,0,15.183,2.178,20.42,6.531
			c5.234,4.356,9.119,10.995,11.656,19.924l43.815,148.145c0.992,3.418,1.488,6.779,1.488,10.086c0,7.386-2.206,13.145-6.613,17.278
			c-4.41,4.134-10.362,6.2-17.856,6.2c-8.709,0-15.294-2.178-19.759-6.531c-4.464-4.353-7.799-11.269-10.003-20.75l-5.457-20.998
			h-62.499l-5.456,20.998c-2.315,9.481-5.704,16.397-10.168,20.75c-4.464,4.354-11.052,6.531-19.758,6.531
			C837.204,662.792,831.252,660.726,826.845,656.592z M932.497,575.988l-19.51-74.568l-1.653-8.267
			c-0.111,0.331-0.718,3.087-1.819,8.267l-19.345,74.568H932.497z"/>
		<path fill="#F19715" d="M1053.356,642.786c-15.873-13.559-23.809-35.326-23.809-65.31v-92.095c0-9.92,2.314-17.469,6.944-22.652
			c4.629-5.18,11.352-7.771,20.171-7.771c8.817,0,15.542,2.591,20.172,7.771c4.629,5.183,6.944,12.731,6.944,22.652V574.5
			c0,16.534,2.754,29.018,8.267,37.45c5.511,8.432,13.558,12.648,24.14,12.648s18.572-4.188,23.975-12.566
			c5.399-8.375,8.102-20.887,8.102-37.532v-89.118c0-9.92,2.314-17.469,6.944-22.652c4.63-5.18,11.352-7.771,20.172-7.771
			c8.817,0,15.542,2.591,20.171,7.771c4.63,5.183,6.944,12.731,6.944,22.652v92.095c0,30.092-7.854,51.891-23.561,65.392
			c-15.708,13.504-36.623,20.254-62.747,20.254C1090.171,663.122,1069.229,656.344,1053.356,642.786z"/>
		<path fill="#F19715" d="M1352.618,461.986c15.101,4.686,28.439,14.606,40.013,29.761c11.574,15.157,17.36,37.01,17.36,65.557
			c0,28.55-5.786,50.403-17.36,65.558c-11.573,15.157-24.912,25.077-40.013,29.761c-15.103,4.687-30.368,7.027-45.799,7.027h-40.013
			c-9.812,0-17.335-2.617-22.568-7.854c-5.237-5.234-7.854-12.814-7.854-22.734V485.382c0-9.92,2.616-17.469,7.854-22.652
			c5.233-5.18,12.757-7.771,22.568-7.771h40.013C1322.25,454.959,1337.516,457.302,1352.618,461.986z M1306.654,621.126
			c15.431,0,27.39-5.151,35.879-15.459c8.486-10.306,12.73-26.426,12.73-48.362c0-22.044-4.244-38.193-12.73-48.445
			c-8.489-10.251-20.448-15.376-35.879-15.376h-16.038v127.643H1306.654z"/>
		<path fill="#F19715" d="M1453.803,654.772c-4.629-3.25-6.944-8.019-6.944-14.302s2.315-11.077,6.944-14.385
			c4.63-3.307,11.518-4.96,20.668-4.96h24.801V493.483h-24.801c-9.15,0-16.038-1.653-20.668-4.96
			c-4.629-3.307-6.944-8.102-6.944-14.385c0-6.283,2.315-11.049,6.944-14.302c4.63-3.25,11.518-4.878,20.668-4.878h100.857
			c9.148,0,16.038,1.628,20.668,4.878c4.629,3.252,6.944,8.019,6.944,14.302c0,6.283-2.315,11.078-6.944,14.385
			c-4.63,3.307-11.52,4.96-20.668,4.96h-24.471v127.643h24.471c9.148,0,16.038,1.653,20.668,4.96
			c4.629,3.308,6.944,8.102,6.944,14.385s-2.315,11.052-6.944,14.302c-4.63,3.253-11.52,4.878-20.668,4.878h-100.857
			C1465.32,659.65,1458.433,658.025,1453.803,654.772z"/>
		<path fill="#F19715" d="M1684.449,652.541c-14.111-7.053-25.628-18.436-34.557-34.143c-8.928-15.708-13.393-35.851-13.393-60.432
			c0-24.58,4.465-44.697,13.393-60.35c8.929-15.65,20.445-27.004,34.557-34.06c14.108-7.053,29.374-10.582,45.799-10.582
			c16.313,0,31.497,3.529,45.552,10.582c14.054,7.056,25.545,18.41,34.474,34.06c8.928,15.653,13.392,35.771,13.392,60.35
			c0,24.581-4.438,44.724-13.31,60.432c-8.874,15.707-20.365,27.09-34.474,34.143c-14.11,7.055-29.321,10.581-45.634,10.581
			C1713.823,663.122,1698.558,659.596,1684.449,652.541z M1701.893,607.403c6.888,11.465,16.34,17.195,28.355,17.195
			c7.825,0,14.604-2.535,20.337-7.606c5.73-5.068,10.169-12.591,13.311-22.568c3.141-9.975,4.712-22.127,4.712-36.457
			c0-14.22-1.571-26.315-4.712-36.293c-3.142-9.975-7.606-17.498-13.393-22.569c-5.787-5.069-12.54-7.605-20.255-7.605
			c-7.937,0-14.798,2.537-20.585,7.605c-5.786,5.071-10.251,12.594-13.393,22.569c-3.142,9.978-4.712,22.073-4.712,36.293
			C1691.559,579.46,1695.002,595.94,1701.893,607.403z"/>
	</g>
	<path fill="#F19715" d="M140.829,572.576c0,12.666-10.635,22.935-23.759,22.935l0,0c-13.128,0-23.764-10.269-23.764-22.935v-50.583
		c0-12.666,10.635-22.934,23.764-22.934l0,0c13.124,0,23.759,10.268,23.759,22.934V572.576z"/>
	<path fill="#F19715" d="M742.151,572.576c0,12.666-10.635,22.935-23.759,22.935l0,0c-13.128,0-23.764-10.269-23.764-22.935v-50.583
		c0-12.666,10.635-22.934,23.764-22.934l0,0c13.124,0,23.759,10.268,23.759,22.934V572.576z"/>
	<path fill="#F19715" d="M237.558,647.813c0,12.732-10.771,23.054-24.044,23.054l0,0c-13.273,0-24.04-10.321-24.04-23.054V501.87
		c0-12.732,10.767-23.056,24.04-23.056l0,0c13.272,0,24.044,10.324,24.044,23.056V647.813z"/>
	<path fill="#F19715" d="M334.292,741.728c0,13.669-11.085,24.746-24.75,24.746l0,0c-13.665,0-24.746-11.077-24.746-24.746v-382.42
		c0-13.667,11.081-24.744,24.746-24.744l0,0c13.665,0,24.75,11.077,24.75,24.744V741.728z"/>
	<path fill="#F19715" d="M553.751,741.728c0,13.669-11.073,24.746-24.742,24.746l0,0c-13.669,0-24.746-11.077-24.746-24.746v-382.42
		c0-13.667,11.077-24.744,24.746-24.744l0,0c13.669,0,24.742,11.077,24.742,24.744V741.728z"/>
	<path fill="#F19715" d="M648.797,646.688c0,13.353-11.399,24.178-25.452,24.178l0,0c-14.048,0-25.443-10.825-25.443-24.178V407.113
		c0-13.355,11.395-24.183,25.443-24.183l0,0c14.053,0,25.452,10.828,25.452,24.183V646.688z"/>
	<path fill="none" stroke="#F19715" stroke-width="13" stroke-miterlimit="10" d="M306.731,595.511l26.07-1.131
		c0,0,17.821,1.69,17.499-14.618l0.953-58.561c0,0-0.953-12.579,10.768-11.471c0,0,8.716-0.547,8.716,9.286v123.425
		c0,0-2.303,12.697,9.785,12.399c0,0,9.075,1.055,8.163-11.853V457.847c0,0-1.799-12.881,12.051-12.835
		c0,0,12.047-1.364,12.047,10.65v141.998c0,0,0,12.377,10.082,12.377c0,0,8.956,1.359,10.334-11.014V488.792
		c0,0-1.614-17.837,9.319-17.837c0,0,10.94-0.725,10.94,11.653l0.553,101.795c0,0-0.553,11.661,10.256,11.661
		c0,0,9.211,0.64,9.211-9.806V536.49c0,0-0.462-11.688,7.738-12.037c0,0,9.5-1.069,9.5,10.947v39.32c0,0-0.797,10.313,7.672,10.208
		c0,0,10.743,1.793,11.098-13.577l0.594-26.123c0,0-0.709-9.754,5.853-9.543c0,0,15.625-2.711,14.907,7.804l1.436,18.98
		c0,0,0.343,11.157,9.063,11.157h-1.692h9.752"/>
</g>
</svg>
